# Blender v2.82 (sub 7) OBJ File: 'obj11.blend'
# www.blender.org
mtllib obj11_6.mtl
o head
v -0.776217 1.250000 -0.223783
v -0.750000 1.223783 -0.250000
v -0.776217 1.250000 0.223783
v -0.750000 1.223783 0.250000
v -1.223783 1.250000 -0.223783
v -1.223783 1.250000 0.223783
v -0.750000 0.788089 -0.250000
v -0.788089 0.750000 -0.211911
v -0.788089 0.750000 0.211911
v -0.750000 0.788089 0.250000
v -1.211911 0.750000 -0.211911
v -1.211911 0.750000 0.211911
v -1.250000 1.199348 -0.225565
v -1.229143 1.232423 -0.241361
v -1.250000 1.199348 0.225565
v -1.229143 1.232423 0.241361
v -1.250000 0.812525 -0.225565
v -1.229143 0.779450 -0.241361
v -1.250000 0.812525 0.225565
v -1.229143 0.779450 0.241361
v -1.250000 1.005936 0.000000
v -1.229143 0.780730 0.241361
v -1.229784 0.780465 0.240876
v -1.240076 0.796788 0.003400
v -1.239924 1.215326 0.000000
vt 0.388108 0.236892
vt 0.611892 0.236892
vt 0.614571 0.245680
vt 0.375000 0.250000
vt 0.388108 0.013108
vt 0.611892 0.013108
vt 0.605955 0.769045
vt 0.394045 0.769045
vt 0.385428 0.754320
vt 0.625000 0.750000
vt 0.394045 0.250000
vt 0.611892 0.250000
vt 0.616211 0.489572
vt 0.390365 0.489572
vt 0.389725 0.489572
vt 0.375000 0.000000
vt 0.639725 0.510428
vt 0.866211 0.510428
vt 0.861892 0.750000
vt 0.644045 0.750000
vt 0.617626 0.004320
vt 0.617626 0.245680
vt 0.605955 0.980955
vt 0.394045 0.980955
vt 0.625000 1.000000
vt 0.385428 0.995680
vt 0.382374 0.995680
vt 0.382374 0.754320
vt 0.406262 0.512218
vt 0.599674 0.512218
vt 0.502968 0.625000
vt 0.599674 0.737782
vt 0.605576 0.625000
vt 0.406262 0.737782
vt 0.400449 0.623300
vt 0.611892 0.750000
vt 0.394045 0.750000
vt 0.390233 0.490267
vt 0.614571 0.004320
vt 0.394045 0.745680
vt 0.394045 0.504320
vt 0.394420 0.504562
vt 0.611892 0.504320
vt 0.611892 0.745680
vn 0.0556 0.9974 0.0452
vn -0.0383 0.9981 0.0474
vn -0.1139 0.0754 0.9906
vn 0.0383 0.1004 0.9942
vn 0.0556 0.9974 -0.0452
vn -0.0383 0.9981 -0.0474
vn 0.0823 -0.9941 -0.0711
vn -0.0656 -0.9951 -0.0746
vn -0.1331 -0.1172 -0.9842
vn 0.0596 -0.1421 -0.9881
vn 0.0596 -0.1420 0.9881
vn -0.1138 0.0753 0.9906
vn -0.0472 0.0000 0.9989
vn -0.0932 -0.1116 0.9894
vn 0.0382 0.1004 0.9942
vn 0.0382 0.1004 -0.9942
vn -0.1331 -0.1171 -0.9842
vn -0.1138 0.0753 -0.9906
vn 0.0383 0.1004 -0.9942
vn 0.0596 -0.1420 -0.9881
vn -0.0383 0.9981 0.0473
vn -0.0383 0.9981 -0.0473
vn -0.1138 0.0754 -0.9906
vn -0.1138 0.0754 0.9906
vn -0.0656 -0.9951 -0.0747
vn 0.0823 -0.9941 0.0711
vn -0.0656 -0.9951 0.0747
vn -0.0656 -0.9951 0.0746
vn 0.0596 -0.1421 0.9881
vn -0.0932 -0.1117 0.9894
vn 0.0595 -0.1421 -0.9881
vn 0.0595 -0.1421 0.9881
vn -0.9953 -0.0449 0.0862
vn -0.9952 0.0462 0.0860
vn -1.0000 0.0000 0.0000
vn -0.9952 0.0462 -0.0860
vn -0.8459 0.5334 0.0000
vn -0.9952 -0.0462 -0.0860
vn -0.8459 -0.5334 0.0000
vn -0.8227 -0.2833 0.4929
vn -0.1139 0.0754 -0.9906
vn -0.1332 -0.1171 -0.9842
vn -0.8226 -0.2833 0.4929
usemtl Material
s off
f 3/1/1 6/2/2 16/3/3 4/4/4
f 1/5/5 5/6/6 6/2/2 3/1/1
f 8/7/7 11/8/8 18/9/9 7/10/10
f 10/11/11 4/12/4 16/13/12 22/14/13 20/15/14
f 1/5/5 3/1/1 4/4/15 2/16/16
f 18/17/17 14/18/18 2/19/19 7/20/20
f 6/2/21 5/6/22 14/21/23 16/22/24
f 11/8/25 8/7/7 9/23/26 12/24/27
f 12/24/28 9/23/26 10/25/29 20/26/14
f 11/8/8 12/24/28 20/27/30 18/28/17
f 9/23/26 8/7/7 7/10/31 10/25/32
f 19/29/33 15/30/34 21/31/35
f 13/32/36 15/30/34 25/33/37
f 19/29/33 17/34/38 24/35/39
f 17/34/38 13/32/36 14/36/23 18/37/17
f 15/30/34 19/29/33 23/38/40 22/14/13 16/13/24
f 5/6/6 1/5/5 2/16/19 14/39/41
f 17/34/38 21/31/35 13/32/36
f 21/31/35 17/34/38 19/29/33
f 13/32/36 21/31/35 15/30/34
f 18/40/42 20/41/14 23/42/43 24/35/39
f 24/35/39 23/42/40 19/29/33
f 22/14/13 23/38/43 20/15/14
f 24/35/39 17/34/38 18/40/9
f 16/43/24 14/44/23 25/33/37
f 25/33/37 14/44/23 13/32/36
f 25/33/37 15/30/34 16/43/24
o hips
v -0.409549 0.944098 0.065716
v -0.534549 0.944098 0.106331
v -0.611803 0.944098 0.000000
v -0.534549 0.944098 -0.106331
v -0.409549 0.944098 -0.065716
v -0.465452 1.055902 0.106331
v -0.590451 1.055902 0.065716
v -0.590451 1.055902 -0.065716
v -0.465452 1.055902 -0.106331
v -0.388197 1.055902 0.000000
v -0.500000 1.125000 0.000000
v -0.520307 0.893668 0.062499
v -0.446835 0.893668 0.038626
v -0.467141 0.934283 0.101126
v -0.393669 0.934283 0.000000
v -0.446835 0.893668 -0.038626
v -0.565716 0.893669 0.000000
v -0.586024 0.934283 0.062500
v -0.520307 0.893668 -0.062499
v -0.586024 0.934283 -0.062500
v -0.467141 0.934283 -0.101126
v -0.381118 1.000000 0.038627
v -0.381118 1.000000 -0.038627
v -0.500000 1.000000 0.125000
v -0.426527 1.000000 0.101127
v -0.618882 1.000000 0.038627
v -0.573473 1.000000 0.101127
v -0.573473 1.000000 -0.101127
v -0.618882 1.000000 -0.038627
v -0.426527 1.000000 -0.101127
v -0.500000 1.000000 -0.125000
v -0.413976 1.065717 0.062500
v -0.532859 1.065717 0.101126
v -0.606331 1.065717 0.000000
v -0.532859 1.065717 -0.101126
v -0.413976 1.065717 -0.062500
v -0.479693 1.106332 0.062499
v -0.434284 1.106331 0.000000
v -0.553165 1.106332 0.038626
v -0.553165 1.106332 -0.038626
v -0.479693 1.106332 -0.062499
vt 0.727272 0.157461
vt 0.681818 0.078731
vt 0.636363 0.157461
vt 0.681818 0.236191
vt 0.909090 0.157461
vt 0.818181 0.157461
vt 0.863635 0.236191
vt 0.181818 0.157461
vt 0.090909 0.157461
vt 0.136363 0.236191
vt 0.363636 0.157461
vt 0.272727 0.157461
vt 0.318182 0.236191
vt 0.545454 0.157461
vt 0.454545 0.157461
vt 0.500000 0.236191
vt 0.772726 0.236191
vt 0.954545 0.236191
vt 0.227273 0.236191
vt 0.409090 0.236191
vt 0.590909 0.236191
vt 0.818181 0.314921
vt 0.727272 0.314921
vt 0.772726 0.393651
vt 1.000000 0.314921
vt 0.909091 0.314921
vt 0.954545 0.393651
vt 0.272727 0.314921
vt 0.181818 0.314921
vt 0.227273 0.393651
vt 0.454545 0.314921
vt 0.363636 0.314921
vt 0.409090 0.393651
vt 0.636363 0.314921
vt 0.545454 0.314921
vt 0.590909 0.393651
vt 0.500000 0.393651
vt 0.545454 0.472382
vt 0.318182 0.393651
vt 0.363636 0.472382
vt 0.136363 0.393651
vt 0.181818 0.472382
vt 0.090909 0.314921
vt 0.863635 0.393651
vt 0.909090 0.472382
vt 0.681818 0.393651
vt 0.727272 0.472382
vt 0.045454 0.236191
vt 0.000000 0.157461
vt 0.500000 0.078731
vt 0.409090 0.078731
vt 0.318182 0.078731
vt 0.227273 0.078731
vt 0.136363 0.078731
vt 0.045454 0.078731
vt 0.590909 0.078731
vt 0.863635 0.078731
vt 0.772726 0.078731
vn 0.7236 -0.4472 0.5257
vn 0.5108 -0.7754 0.3711
vn 0.8506 -0.5257 0.0000
vn 0.8507 -0.5257 0.0000
vn 0.9511 -0.0000 0.3090
vn -0.2764 -0.4472 0.8507
vn 0.2629 -0.5257 0.8090
vn -0.0000 -0.0000 1.0000
vn -0.8944 -0.4472 0.0000
vn -0.6882 -0.5257 0.5000
vn -0.9511 -0.0000 0.3090
vn -0.2764 -0.4472 -0.8507
vn -0.6882 -0.5257 -0.5000
vn -0.5878 -0.0000 -0.8090
vn 0.7236 -0.4472 -0.5257
vn 0.2629 -0.5257 -0.8090
vn 0.5878 -0.0000 -0.8090
vn 0.7236 -0.4472 0.5258
vn 0.5878 -0.0000 0.8090
vn -0.2764 -0.4472 0.8506
vn -0.5878 -0.0000 0.8090
vn -0.9511 -0.0000 -0.3090
vn -0.2764 -0.4472 -0.8506
vn -0.0000 -0.0000 -1.0000
vn 0.7236 -0.4472 -0.5258
vn 0.9511 -0.0000 -0.3090
vn 0.2764 0.4472 0.8506
vn 0.6882 0.5257 0.5000
vn 0.1625 0.8506 0.5000
vn -0.7236 0.4472 0.5257
vn -0.2629 0.5257 0.8090
vn -0.4253 0.8506 0.3090
vn -0.7236 0.4472 -0.5257
vn -0.8506 0.5257 -0.0000
vn -0.4253 0.8506 -0.3090
vn 0.2764 0.4472 -0.8506
vn -0.2629 0.5257 -0.8090
vn 0.1625 0.8506 -0.5000
vn 0.8944 0.4472 -0.0000
vn 0.6882 0.5257 -0.5000
vn 0.5257 0.8506 0.0000
vn 0.5257 0.8507 -0.0000
vn 0.1625 0.8507 -0.5000
vn -0.0000 1.0000 -0.0000
vn 0.5258 0.8506 -0.0000
vn -0.4253 0.8507 -0.3090
vn -0.2628 0.5257 -0.8090
vn -0.4253 0.8507 0.3090
vn 0.1625 0.8507 0.5000
vn -0.2628 0.5257 0.8090
vn 0.2764 0.4472 -0.8507
vn -0.8507 0.5257 -0.0000
vn 0.2764 0.4472 0.8507
vn -0.7236 0.4472 -0.5258
vn -0.7236 0.4472 0.5258
vn 0.5108 -0.7754 -0.3711
vn 0.5108 -0.7754 -0.3712
vn -0.1951 -0.7754 -0.6005
vn 0.2628 -0.5257 -0.8090
vn -0.6314 -0.7754 -0.0000
vn -0.1951 -0.7754 0.6005
vn 0.5109 -0.7754 0.3711
vn 0.5109 -0.7754 -0.3711
vn 0.5108 -0.7754 0.3712
vn 0.2628 -0.5257 0.8090
usemtl None
s off
f 26/45/44 38/46/45 40/47/46
f 26/45/44 40/47/47 47/48/48
f 27/49/49 39/50/50 49/51/51
f 28/52/52 43/53/53 51/54/54
f 29/55/55 45/56/56 53/57/57
f 30/58/58 46/59/59 55/60/60
f 26/45/61 47/48/48 50/61/62
f 27/49/63 49/51/51 52/62/64
f 28/52/52 51/54/54 54/63/65
f 29/55/66 53/57/57 56/64/67
f 30/58/68 55/60/60 48/65/69
f 31/66/70 57/67/71 62/68/72
f 32/69/73 58/70/74 64/71/75
f 33/72/76 59/73/77 65/74/78
f 34/75/79 60/76/80 66/77/81
f 35/78/82 61/79/83 63/80/84
f 63/80/85 66/81/86 36/82/87
f 63/80/88 61/79/83 66/81/81
f 61/79/83 34/75/79 66/81/81
f 66/77/86 65/83/89 36/84/87
f 66/77/81 60/76/90 65/83/78
f 60/76/80 33/72/76 65/83/78
f 65/74/89 64/85/91 36/86/87
f 65/74/78 59/73/77 64/85/75
f 59/73/77 32/87/73 64/85/75
f 64/71/91 62/88/92 36/89/87
f 64/71/75 58/70/93 62/88/72
f 58/70/74 31/66/70 62/88/72
f 62/68/92 63/90/85 36/91/87
f 62/68/72 57/67/71 63/90/88
f 57/67/71 35/78/82 63/90/84
f 48/65/69 61/79/83 35/78/82
f 48/65/69 55/60/60 61/79/83
f 55/60/60 34/75/94 61/79/83
f 56/64/67 60/76/80 34/75/94
f 56/64/67 53/57/57 60/76/80
f 53/57/57 33/72/76 60/76/80
f 54/63/65 59/73/95 33/72/76
f 54/63/65 51/54/54 59/73/95
f 51/54/54 32/87/73 59/73/95
f 52/62/64 58/70/74 32/69/73
f 52/62/64 49/51/51 58/70/74
f 49/51/51 31/66/96 58/70/74
f 50/61/62 57/67/71 31/66/96
f 50/61/62 47/48/48 57/67/71
f 47/48/48 35/78/82 57/67/71
f 55/60/60 56/64/67 34/75/79
f 55/60/60 46/59/59 56/64/67
f 46/59/59 29/55/55 56/64/67
f 53/57/57 54/63/65 33/72/97
f 53/57/57 45/56/56 54/63/65
f 45/56/56 28/52/52 54/63/65
f 51/54/54 52/92/64 32/87/98
f 51/54/54 43/53/53 52/92/64
f 43/53/53 27/93/49 52/92/64
f 49/51/51 50/61/62 31/66/70
f 49/51/51 39/50/50 50/61/62
f 39/50/50 26/45/44 50/61/62
f 47/48/48 48/65/69 35/78/82
f 47/48/48 40/47/46 48/65/69
f 40/47/47 30/58/58 48/65/69
f 41/94/99 46/59/59 30/58/58
f 41/94/100 44/95/101 46/59/102
f 44/95/101 29/55/55 46/59/59
f 44/96/101 45/56/56 29/55/66
f 44/96/101 42/97/103 45/56/56
f 42/97/103 28/52/52 45/56/56
f 42/98/103 43/53/53 28/52/52
f 42/98/103 37/99/104 43/53/53
f 37/99/104 27/93/63 43/53/53
f 40/47/46 41/100/99 30/58/58
f 40/47/46 38/46/105 41/100/106
f 37/101/104 39/50/50 27/49/63
f 37/101/104 38/102/107 39/50/108
f 38/102/45 26/45/44 39/50/50
o spine
v -0.500000 0.500000 0.500000
v 0.500000 0.500000 0.500000
v -0.500000 0.500000 -0.500000
v 0.500000 0.500000 -0.500000
vt 0.000000 0.000000
vt 1.000000 0.000000
vt 1.000000 1.000000
vt 0.000000 1.000000
vn 0.0000 1.0000 0.0000
usemtl None
s off
f 67/103/109 68/104/109 70/105/109 69/106/109
o Armature
v -0.500000 0.500000 -0.900000
v -0.500000 1.500000 -0.900000
v -0.500000 0.500000 -1.100000
v -0.500000 1.500000 -1.100000
v 0.500000 0.500000 -0.900000
v 0.500000 1.500000 -0.900000
v 0.500000 0.500000 -1.100000
v 0.500000 1.500000 -1.100000
vt 0.375000 0.000000
vt 0.625000 0.000000
vt 0.625000 0.250000
vt 0.375000 0.250000
vt 0.625000 0.500000
vt 0.375000 0.500000
vt 0.625000 0.750000
vt 0.375000 0.750000
vt 0.625000 1.000000
vt 0.375000 1.000000
vt 0.125000 0.500000
vt 0.125000 0.750000
vt 0.875000 0.500000
vt 0.875000 0.750000
vn -1.0000 0.0000 0.0000
vn 0.0000 0.0000 -1.0000
vn 1.0000 0.0000 0.0000
vn 0.0000 0.0000 1.0000
vn 0.0000 -1.0000 0.0000
vn 0.0000 1.0000 0.0000
usemtl None
s off
f 71/107/110 72/108/110 74/109/110 73/110/110
f 73/110/111 74/109/111 78/111/111 77/112/111
f 77/112/112 78/111/112 76/113/112 75/114/112
f 75/114/113 76/113/113 72/115/113 71/116/113
f 73/117/114 77/112/114 75/114/114 71/118/114
f 78/111/115 74/119/115 72/120/115 76/113/115
